<svg width="18" height="19" viewBox="0 0 18 19" fill="none" xmlns="http://www.w3.org/2000/svg">
<g clip-path="url(#clip0_508_1734)">
<path d="M9 1.66268C11.4033 1.66268 11.6876 1.6722 12.6369 1.71654C13.5143 1.75758 13.9909 1.90781 14.3081 2.03422C14.6995 2.18203 15.0536 2.41807 15.3442 2.72492C15.6433 3.02297 15.8735 3.3861 16.0176 3.78753C16.1408 4.11291 16.2873 4.60171 16.3273 5.50162C16.3706 6.47519 16.3798 6.76686 16.3798 9.23175C16.3798 11.6966 16.3706 11.9883 16.3273 12.9619C16.2873 13.8618 16.1408 14.3506 16.0176 14.676C15.8677 15.074 15.6383 15.4354 15.3442 15.7371C15.05 16.0388 14.6976 16.2741 14.3095 16.4278C13.9923 16.5542 13.5157 16.7044 12.6383 16.7455C11.6894 16.7898 11.4047 16.7993 9.00143 16.7993C6.59817 16.7993 6.31343 16.7898 5.36456 16.7455C4.48714 16.7044 4.01056 16.5542 3.69331 16.4278C3.30192 16.28 2.94787 16.044 2.65727 15.7371C2.35809 15.4391 2.12796 15.0759 1.98384 14.6745C1.86059 14.3491 1.71412 13.8603 1.6741 12.9604C1.63087 11.9868 1.62159 11.6952 1.62159 9.23028C1.62159 6.7654 1.63087 6.47373 1.6741 5.50016C1.71412 4.60024 1.86059 4.11144 1.98384 3.78606C2.12796 3.38463 2.35809 3.0215 2.65727 2.72345C2.94787 2.4166 3.30192 2.18057 3.69331 2.03276C4.01056 1.90634 4.48714 1.75611 5.36456 1.71508C6.31379 1.67074 6.59817 1.66121 9.00143 1.66121L9 1.66268ZM9.00143 -0.00195312C6.55708 -0.00195312 6.25055 0.00867296 5.29061 0.0537422C4.33066 0.0988114 3.67688 0.256004 3.10527 0.483915C2.50458 0.715837 1.96036 1.0792 1.51048 1.54872C1.05269 2.01014 0.698417 2.56831 0.472293 3.18441C0.250079 3.77067 0.0978882 4.44268 0.0543029 5.42504C0.0107177 6.40741 0 6.72326 0 9.23028C0 11.7373 0.0103604 12.0517 0.0543029 13.0362C0.0982455 14.0208 0.250079 14.6899 0.472293 15.2762C0.698509 15.892 1.05278 16.4499 1.51048 16.9111C1.96021 17.3809 2.50446 17.7444 3.10527 17.9763C3.67688 18.2046 4.33209 18.3606 5.28989 18.4054C6.2477 18.4501 6.55637 18.461 9.00071 18.461C11.4451 18.461 11.7516 18.4504 12.7115 18.4054C13.6715 18.3603 14.3231 18.2046 14.8947 17.9763C15.4928 17.7393 16.036 17.3766 16.4893 16.9116C16.9427 16.4466 17.2963 15.8896 17.5273 15.2762C17.7499 14.6899 17.9021 14.0179 17.9457 13.0355C17.9893 12.0532 18 11.7366 18 9.22955C18 6.72252 17.9896 6.40814 17.9457 5.42358C17.9018 4.43902 17.7499 3.77067 17.5273 3.18441C17.3014 2.56852 16.9472 2.01058 16.4895 1.54945C16.0397 1.07967 15.4955 0.716052 14.8947 0.483915C14.3231 0.256004 13.6679 0.0999107 12.7101 0.0552079C11.7523 0.010505 11.4443 -0.00048746 9 -0.00048746L9.00143 -0.00195312Z" fill="#282B3A"/>
<path d="M8.99989 4.49072C8.08585 4.49072 7.19233 4.76872 6.43234 5.28955C5.67234 5.81038 5.08 6.55067 4.73021 7.41678C4.38042 8.2829 4.2889 9.23595 4.46722 10.1554C4.64554 11.0749 5.08569 11.9195 5.73202 12.5824C6.37834 13.2452 7.20181 13.6967 8.09828 13.8796C8.99476 14.0625 9.92398 13.9686 10.7684 13.6098C11.6129 13.2511 12.3347 12.6436 12.8425 11.8641C13.3503 11.0846 13.6214 10.1682 13.6214 9.23069C13.6214 8.60821 13.5019 7.99183 13.2697 7.41673C13.0374 6.84162 12.697 6.31908 12.2679 5.87892C11.8387 5.43876 11.3292 5.08962 10.7685 4.85143C10.2078 4.61324 9.6068 4.49067 8.99989 4.49072ZM8.99989 12.3086C8.40635 12.3086 7.82615 12.1281 7.33265 11.7899C6.83914 11.4517 6.4545 10.971 6.22737 10.4086C6.00023 9.84614 5.9408 9.22727 6.0566 8.63022C6.17239 8.03317 6.4582 7.48474 6.87789 7.05428C7.29758 6.62383 7.8323 6.33069 8.41443 6.21193C8.99656 6.09317 9.59995 6.15412 10.1483 6.38708C10.6967 6.62004 11.1653 7.01454 11.4951 7.5207C11.8248 8.02686 12.0008 8.62194 12.0008 9.23069C12.0008 10.047 11.6847 10.8299 11.1219 11.4071C10.5591 11.9843 9.79579 12.3086 8.99989 12.3086Z" fill="#282B3A"/>
<path d="M13.8046 5.41115C14.4011 5.41115 14.8846 4.91523 14.8846 4.30348C14.8846 3.69172 14.4011 3.1958 13.8046 3.1958C13.2081 3.1958 12.7246 3.69172 12.7246 4.30348C12.7246 4.91523 13.2081 5.41115 13.8046 5.41115Z" fill="#282B3A"/>
</g>
<defs>
<clipPath id="clip0_508_1734">
<rect width="18" height="18.4615" fill="white"/>
</clipPath>
</defs>
</svg>
