<svg width="18" height="19" viewBox="0 0 18 19" fill="none" xmlns="http://www.w3.org/2000/svg">
<g clip-path="url(#clip0_508_2032)">
<path d="M9 1.66292C11.4033 1.66292 11.6876 1.67245 12.6369 1.71678C13.5143 1.75782 13.9909 1.90805 14.3081 2.03447C14.6995 2.18228 15.0536 2.41831 15.3442 2.72516C15.6433 3.02321 15.8735 3.38634 16.0176 3.78777C16.1408 4.11315 16.2873 4.60195 16.3273 5.50187C16.3706 6.47544 16.3798 6.76711 16.3798 9.23199C16.3798 11.6969 16.3706 11.9885 16.3273 12.9621C16.2873 13.862 16.1408 14.3508 16.0176 14.6762C15.8677 15.0742 15.6383 15.4357 15.3442 15.7374C15.05 16.039 14.6976 16.2743 14.3095 16.428C13.9923 16.5545 13.5157 16.7047 12.6383 16.7457C11.6894 16.7901 11.4047 16.7996 9.00143 16.7996C6.59817 16.7996 6.31343 16.7901 5.36456 16.7457C4.48714 16.7047 4.01056 16.5545 3.69331 16.428C3.30192 16.2802 2.94787 16.0442 2.65727 15.7373C2.35809 15.4393 2.12796 15.0762 1.98384 14.6747C1.86059 14.3494 1.71412 13.8606 1.6741 12.9606C1.63087 11.9871 1.62159 11.6954 1.62159 9.23052C1.62159 6.76564 1.63087 6.47397 1.6741 5.5004C1.71412 4.60048 1.86059 4.11168 1.98384 3.78631C2.12796 3.38488 2.35809 3.02175 2.65727 2.7237C2.94787 2.41684 3.30192 2.18081 3.69331 2.033C4.01056 1.90659 4.48714 1.75636 5.36456 1.71532C6.31379 1.67098 6.59817 1.66146 9.00143 1.66146L9 1.66292ZM9.00143 -0.00170898C6.55708 -0.00170898 6.25055 0.0089171 5.29061 0.0539863C4.33066 0.0990556 3.67688 0.256248 3.10527 0.484159C2.50458 0.716082 1.96036 1.07944 1.51048 1.54897C1.05269 2.01039 0.698417 2.56856 0.472293 3.18465C0.250079 3.77092 0.0978882 4.44292 0.0543029 5.42529C0.0107177 6.40765 0 6.7235 0 9.23052C0 11.7375 0.0103604 12.0519 0.0543029 13.0365C0.0982455 14.0211 0.250079 14.6901 0.472293 15.2764C0.698509 15.8922 1.05278 16.4501 1.51048 16.9113C1.96021 17.3812 2.50446 17.7447 3.10527 17.9765C3.67688 18.2048 4.33209 18.3609 5.28989 18.4056C6.2477 18.4503 6.55637 18.4613 9.00071 18.4613C11.4451 18.4613 11.7516 18.4507 12.7115 18.4056C13.6715 18.3605 14.3231 18.2048 14.8947 17.9765C15.4928 17.7395 16.036 17.3769 16.4893 16.9119C16.9427 16.4469 17.2963 15.8898 17.5273 15.2764C17.7499 14.6901 17.9021 14.0181 17.9457 13.0358C17.9893 12.0534 18 11.7368 18 9.22979C18 6.72277 17.9896 6.40838 17.9457 5.42382C17.9018 4.43926 17.7499 3.77092 17.5273 3.18465C17.3014 2.56877 16.9472 2.01082 16.4895 1.5497C16.0397 1.07991 15.4955 0.716296 14.8947 0.484159C14.3231 0.256248 13.6679 0.100155 12.7101 0.055452C11.7523 0.0107492 11.4443 -0.000243319 9 -0.000243319L9.00143 -0.00170898Z" fill="white"/>
<path d="M8.99989 4.49072C8.08585 4.49072 7.19233 4.76872 6.43234 5.28955C5.67234 5.81038 5.08 6.55067 4.73021 7.41678C4.38042 8.2829 4.2889 9.23595 4.46722 10.1554C4.64554 11.0749 5.08569 11.9195 5.73202 12.5824C6.37834 13.2452 7.20181 13.6967 8.09828 13.8796C8.99476 14.0625 9.92398 13.9686 10.7684 13.6098C11.6129 13.2511 12.3347 12.6436 12.8425 11.8641C13.3503 11.0846 13.6214 10.1682 13.6214 9.23069C13.6214 8.60821 13.5019 7.99183 13.2697 7.41673C13.0374 6.84162 12.697 6.31908 12.2679 5.87892C11.8387 5.43876 11.3292 5.08962 10.7685 4.85143C10.2078 4.61324 9.6068 4.49067 8.99989 4.49072ZM8.99989 12.3086C8.40635 12.3086 7.82615 12.1281 7.33265 11.7899C6.83914 11.4517 6.4545 10.971 6.22737 10.4086C6.00023 9.84614 5.9408 9.22727 6.0566 8.63022C6.17239 8.03317 6.4582 7.48474 6.87789 7.05428C7.29758 6.62383 7.8323 6.33069 8.41443 6.21193C8.99656 6.09317 9.59995 6.15412 10.1483 6.38708C10.6967 6.62004 11.1653 7.01454 11.4951 7.5207C11.8248 8.02686 12.0008 8.62194 12.0008 9.23069C12.0008 10.047 11.6847 10.8299 11.1219 11.4071C10.5591 11.9843 9.79579 12.3086 8.99989 12.3086Z" fill="white"/>
<path d="M13.8046 5.41091C14.4011 5.41091 14.8846 4.91499 14.8846 4.30323C14.8846 3.69148 14.4011 3.19556 13.8046 3.19556C13.2081 3.19556 12.7246 3.69148 12.7246 4.30323C12.7246 4.91499 13.2081 5.41091 13.8046 5.41091Z" fill="white"/>
</g>
<defs>
<clipPath id="clip0_508_2032">
<rect width="18" height="18.4615" fill="white"/>
</clipPath>
</defs>
</svg>
