<svg width="162" height="76" viewBox="0 0 162 76" fill="none" xmlns="http://www.w3.org/2000/svg">
<g clip-path="url(#clip0_845_362)">
<path d="M10.4021 74.8664C10.4315 74.9621 10.4668 75.0559 10.5078 75.1472C10.5366 75.2317 10.572 75.3138 10.6136 75.3929C10.6489 75.4981 10.6842 75.5683 10.7194 75.6736C10.4437 75.7464 10.1572 75.7702 9.87313 75.7438C9.62946 75.7061 9.39215 75.6353 9.1679 75.5332C8.90273 75.3889 8.70146 75.151 8.60371 74.8664C8.48161 74.592 8.37564 74.3108 8.28635 74.0242C8.11004 73.603 7.93373 73.1117 7.72216 72.5853H3.42021C3.20864 73.1468 2.99707 73.6381 2.85602 74.0242C2.73375 74.2985 2.62778 74.5797 2.53867 74.8664C2.43049 75.145 2.23193 75.3797 1.97448 75.5332C1.75022 75.6353 1.51292 75.7061 1.26924 75.7438C0.973527 75.7715 0.675216 75.7478 0.387695 75.6736C0.422957 75.5683 0.458219 75.4981 0.493481 75.3929C0.528743 75.2876 0.564005 75.2174 0.599267 75.1472C0.631922 75.0471 0.679466 74.9525 0.740314 74.8664C0.810838 74.691 0.951885 74.3751 1.12819 73.9189C1.3045 73.4627 1.51608 72.9714 1.72765 72.4098C1.93922 71.8483 2.22131 71.2166 2.46814 70.5849C2.71498 69.9533 2.96181 69.3567 3.20864 68.7601C3.45548 68.1635 3.63179 67.6721 3.80809 67.251C3.9844 66.8299 4.12545 66.514 4.19598 66.3386C4.29124 66.1053 4.40935 65.882 4.54859 65.6718C4.65955 65.526 4.79006 65.3962 4.93647 65.2857C5.03812 65.1999 5.15908 65.1397 5.28909 65.1103C5.49805 65.0635 5.71485 65.0635 5.92381 65.1103C6.05382 65.1397 6.17478 65.1999 6.27642 65.2857C6.41447 65.4054 6.54408 65.5344 6.66431 65.6718C6.81689 65.8738 6.93594 66.099 7.01692 66.3386C7.08745 66.514 7.22849 66.8299 7.4048 67.251C7.58111 67.6721 7.79268 68.1985 8.00426 68.7601C8.21583 69.3216 8.49792 69.9533 8.74475 70.5849C8.99159 71.2166 9.23842 71.8132 9.48525 72.4098C9.73209 73.0064 9.9084 73.4978 10.0847 73.9189C10.261 74.34 10.3315 74.691 10.4021 74.8664ZM7.12271 71.1114C6.91114 70.62 6.73483 70.1287 6.52326 69.6374C6.31169 69.1461 6.17064 68.725 6.02959 68.3389C5.85328 67.8827 5.67697 67.4616 5.53593 67.0755C5.35962 67.4616 5.21857 67.8827 5.04226 68.3389C4.90121 68.725 4.7249 69.1461 4.54859 69.6374C4.37228 70.1287 4.16071 70.62 3.9844 71.1114H7.12271Z" fill="#73308A"/>
<path d="M16.8552 74.2699V75.0068C16.8464 75.1598 16.8583 75.3132 16.8905 75.4631C16.8905 75.5683 16.9257 75.6736 16.9257 75.7438C16.4156 75.7647 15.9112 75.63 15.48 75.3578C15.1274 75.1121 14.9863 74.6559 14.9863 74.0593L15.0216 67.6722C14.9999 67.2599 15.0849 66.8491 15.2684 66.4789C15.4358 66.1676 15.6781 65.9023 15.9737 65.7069C16.2933 65.4954 16.6535 65.352 17.0315 65.2857C17.4547 65.2156 17.8778 65.1454 18.3715 65.1103C18.8793 65.0777 19.3893 65.1131 19.8877 65.2156C20.4112 65.313 20.9128 65.5031 21.3687 65.7771C21.8263 66.0454 22.2131 66.4184 22.4971 66.865C22.8377 67.373 23.0103 67.9742 22.9908 68.5846C23.0169 69.0247 22.957 69.4657 22.8145 69.8831C22.6745 70.3254 22.4599 70.7408 22.1797 71.1114C21.8629 71.4958 21.4658 71.8072 21.0161 72.0238C20.4635 72.2745 19.86 72.3946 19.253 72.3748C18.9345 72.3715 18.6165 72.3481 18.3009 72.3046C18.0391 72.2779 17.7797 72.231 17.5252 72.1642C17.2783 72.094 17.0315 72.0238 16.8199 71.9536V74.2699H16.8552ZM18.9709 70.8306C19.553 70.8554 20.122 70.654 20.5577 70.2691C20.9808 69.8831 21.1572 69.3216 21.1219 68.5495C21.1083 68.1931 21.0118 67.8447 20.8398 67.5318C20.7076 67.2665 20.4989 67.0466 20.2403 66.9001C19.9758 66.753 19.6905 66.6465 19.3941 66.5842C19.0672 66.5369 18.7361 66.5251 18.4067 66.5491C18.1505 66.5573 17.8986 66.617 17.6662 66.7246C17.4972 66.7889 17.3417 66.8841 17.2078 67.0054C17.0952 67.098 17.0099 67.2193 16.961 67.3563C16.9205 67.4813 16.8968 67.6111 16.8905 67.7423V70.4095C17.0668 70.4797 17.2783 70.5499 17.4899 70.6201C17.7015 70.6903 17.9131 70.7253 18.1599 70.7604C18.4281 70.8043 18.6992 70.8278 18.9709 70.8306Z" fill="#73308A"/>
<path d="M22.9554 72.094C22.9415 71.5312 23.0373 70.9711 23.2375 70.4446C23.4167 70.0521 23.6818 69.7044 24.0133 69.4269C24.3206 69.1801 24.6837 69.0114 25.0711 68.9355C25.454 68.8543 25.8435 68.8073 26.2348 68.7952H26.9753C27.0212 68.9906 27.0331 69.1924 27.0105 69.3918C26.969 69.5448 26.897 69.688 26.799 69.8129C26.6488 69.9627 26.4472 70.0504 26.2348 70.0586C26.0585 70.0936 25.8821 70.1287 25.7411 70.1638C25.5696 70.223 25.4131 70.3189 25.2827 70.4446C25.1217 70.6091 25.0116 70.8162 24.9653 71.0412C24.8713 71.3723 24.8239 71.7148 24.8243 72.0589V74.9717C24.8155 75.1247 24.8274 75.2781 24.8596 75.428C24.8596 75.5332 24.8948 75.6385 24.8948 75.7087C24.3951 75.7353 23.9002 75.5998 23.4843 75.3227C23.3087 75.1575 23.1731 74.9548 23.0876 74.7299C23.0021 74.505 22.9689 74.2637 22.9907 74.0242V72.094H22.9554Z" fill="#73308A"/>
<path d="M33.0753 69.7076C33.3933 70.0303 33.6448 70.4118 33.8158 70.8306C34.1812 71.7289 34.1938 72.7311 33.851 73.6382C33.6916 74.0468 33.4652 74.4263 33.181 74.7612C32.8912 75.0944 32.5297 75.3583 32.1232 75.5333C31.6768 75.7205 31.1971 75.816 30.7127 75.814C30.2628 75.8126 29.8183 75.7169 29.408 75.5333C28.9962 75.3499 28.6247 75.0876 28.3149 74.7612C28.0076 74.4369 27.7679 74.0552 27.6097 73.6382C27.2442 72.7399 27.2317 71.7377 27.5744 70.8306C27.7201 70.4155 27.9479 70.0337 28.2444 69.7076C28.5342 69.3744 28.8958 69.1104 29.3022 68.9355C29.7486 68.7483 30.2283 68.6528 30.7127 68.6548C31.1735 68.6603 31.6287 68.7557 32.0527 68.9355C32.4319 69.1383 32.7769 69.3988 33.0753 69.7076ZM30.6774 74.5857C30.8357 74.5806 30.9914 74.5449 31.1359 74.4804C31.3285 74.4087 31.4988 74.2876 31.6295 74.1295C31.8062 73.9187 31.9489 73.6819 32.0527 73.4276C32.2877 72.6493 32.2877 71.8195 32.0527 71.0412C31.9711 70.7765 31.8258 70.5355 31.6295 70.3393C31.492 70.1886 31.3237 70.0689 31.1359 69.9884C30.9928 69.9199 30.8362 69.8844 30.6774 69.8844C30.5187 69.8844 30.3621 69.9199 30.219 69.9884C30.0264 70.0601 29.8561 70.1812 29.7254 70.3393C29.5411 70.5446 29.3976 70.7828 29.3022 71.0412C29.0672 71.8195 29.0672 72.6493 29.3022 73.4276C29.3838 73.6923 29.5291 73.9333 29.7254 74.1295C29.8629 74.2802 30.0312 74.3999 30.219 74.4804C30.3635 74.5449 30.5192 74.5806 30.6774 74.5857Z" fill="#73308A"/>
<path d="M39.0696 75.1121C38.9354 75.3964 38.7129 75.6302 38.4349 75.7789C38.2209 75.8758 37.996 75.9465 37.7649 75.9895C37.5134 76.0063 37.2611 75.9705 37.0244 75.8842C36.9539 75.7087 36.8481 75.4631 36.707 75.1121C36.566 74.7612 36.4249 74.4102 36.2486 74.0242C36.0723 73.6382 35.896 73.217 35.7197 72.7608C35.5434 72.3046 35.3671 71.8835 35.1908 71.4974C35.0145 71.1114 34.8734 70.7253 34.7324 70.3744C34.5913 70.0235 34.4855 69.7778 34.415 69.6023C34.3798 69.4971 34.3445 69.4269 34.3092 69.3216C34.2804 69.2371 34.2451 69.1549 34.2034 69.0759C34.1682 68.9706 34.1329 68.9004 34.0977 68.7952C34.3852 68.721 34.6835 68.6972 34.9792 68.725C35.2229 68.7626 35.4602 68.8335 35.6844 68.9355C35.9496 69.0798 36.1509 69.3177 36.2486 69.6023C36.2839 69.7076 36.3544 69.848 36.4249 70.0586C36.4955 70.2691 36.566 70.4446 36.6718 70.6552C36.7776 70.8657 36.8481 71.1114 36.9539 71.357C37.0597 71.6027 37.1302 71.8484 37.236 72.094C37.4475 72.6555 37.6944 73.2521 37.9412 73.8838C38.188 73.2521 38.3996 72.6555 38.6464 72.094C38.7522 71.8484 38.8227 71.6027 38.9285 71.357C39.0377 71.1294 39.1319 70.8949 39.2106 70.6552C39.2812 70.4446 39.3869 70.234 39.4575 70.0586C39.528 69.8831 39.5985 69.7076 39.6338 69.6023C39.7419 69.3237 39.9405 69.089 40.198 68.9355C40.424 68.8381 40.6607 68.7675 40.9032 68.725C41.1989 68.6972 41.4972 68.721 41.7847 68.7952C41.7495 68.8654 41.7142 68.9706 41.679 69.0408C41.6379 69.1321 41.6026 69.2259 41.5732 69.3216C41.5379 69.4269 41.5026 69.4971 41.4674 69.6023C41.3969 69.7778 41.2911 70.0586 41.1853 70.3393C41.0795 70.6201 40.9385 70.971 40.7974 71.3219C40.6564 71.6729 40.5153 72.0589 40.3743 72.4099C40.2332 72.7608 40.0569 73.1468 39.9159 73.4978C39.7748 73.8487 39.6338 74.1646 39.528 74.4453C39.2812 74.7612 39.1754 74.9717 39.0696 75.1121Z" fill="#73308A"/>
<path d="M47.498 74.2698C47.6408 74.3586 47.7614 74.4786 47.8506 74.6208L47.8859 74.6559L47.8506 74.691C47.5117 75.0488 47.104 75.3352 46.6517 75.5332C46.1872 75.7451 45.6817 75.8529 45.1707 75.8491C44.7208 75.8476 44.2763 75.752 43.866 75.5683C43.4542 75.385 43.0827 75.1226 42.7729 74.7962C42.4656 74.4719 42.226 74.0902 42.0677 73.6732C41.7023 72.775 41.6897 71.7728 42.0324 70.8657C42.1858 70.4436 42.4126 70.0516 42.7024 69.7076C43.0018 69.3848 43.361 69.1227 43.7602 68.9355C44.2066 68.7483 44.6864 68.6528 45.1707 68.6548C45.4819 68.6524 45.7915 68.6998 46.0875 68.7951C46.4328 68.8621 46.7583 69.0061 47.0396 69.2163C47.3366 69.4064 47.5891 69.6577 47.7801 69.9533C47.9681 70.2851 48.0653 70.6602 48.0622 71.0412C48.0763 71.4065 47.9643 71.7657 47.7448 72.0589C47.5403 72.3048 47.2886 72.5076 47.0043 72.6555C46.7126 72.7972 46.4048 72.9032 46.0875 72.9713C45.809 73.0268 45.5251 73.0503 45.2412 73.0415C44.911 73.0395 44.5811 73.016 44.2539 72.9713C44.0631 72.9531 43.8743 72.9178 43.6897 72.8661C43.703 73.1735 43.7874 73.4738 43.9366 73.7434C44.0277 73.9534 44.1738 74.1352 44.3597 74.2698C44.4956 74.3883 44.6506 74.4832 44.8181 74.5506C44.9558 74.591 45.0979 74.6146 45.2412 74.6208C45.4429 74.6168 45.6436 74.5933 45.8407 74.5506C46.021 74.5203 46.1981 74.4733 46.3696 74.4102C46.5107 74.3751 46.6517 74.3049 46.7928 74.2698C46.9191 74.2325 47.0492 74.209 47.1807 74.1996C47.2355 74.1873 47.2924 74.1872 47.3472 74.1993C47.4021 74.2115 47.4536 74.2355 47.498 74.2698ZM45.1707 69.9182C45.0393 69.9275 44.9092 69.951 44.7828 69.9883C44.6165 70.0423 44.4613 70.1255 44.3244 70.234C44.1518 70.3733 44.0181 70.5546 43.9366 70.7604C43.803 71.0237 43.7193 71.3092 43.6897 71.6027C43.9218 71.6632 44.1573 71.7101 44.395 71.7431C44.6863 71.7897 44.9823 71.8015 45.2765 71.7781C45.5503 71.7553 45.8155 71.6713 46.0523 71.5325C46.1648 71.4511 46.258 71.346 46.325 71.2247C46.3921 71.1034 46.4314 70.9688 46.4402 70.8306C46.4545 70.7098 46.4358 70.5874 46.3862 70.4762C46.3365 70.3651 46.2577 70.2693 46.1581 70.1989C45.875 69.9873 45.5234 69.8873 45.1707 69.9182Z" fill="#73308A"/>
<path d="M49.2253 71.9185C49.2115 71.3558 49.3073 70.7956 49.5074 70.2691C49.6868 69.886 49.9381 69.5405 50.2479 69.2514C50.5553 69.0046 50.9183 68.836 51.3058 68.7601C51.6887 68.6788 52.0781 68.6318 52.4694 68.6197C52.8619 68.6144 53.2533 68.6616 53.6331 68.7601C54.0205 68.836 54.3836 69.0046 54.6909 69.2514C55.0303 69.5214 55.2969 69.8711 55.4667 70.2691C55.6838 70.7909 55.7802 71.3546 55.7488 71.9185L55.8193 75.7087C55.3196 75.7353 54.8247 75.5998 54.4088 75.3227C54.2332 75.1575 54.0976 74.9548 54.0121 74.7299C53.9265 74.505 53.8934 74.2637 53.9152 74.0242V71.8834C53.9333 71.5384 53.8854 71.193 53.7741 70.8657C53.7085 70.6407 53.5872 70.4356 53.4215 70.2691C53.3007 70.1316 53.1409 70.0338 52.9631 69.9884C52.7895 69.9478 52.6124 69.9243 52.4342 69.9182C52.2674 69.9218 52.1016 69.9453 51.9405 69.9884C51.7628 70.0338 51.603 70.1316 51.4821 70.2691C51.3283 70.4387 51.2192 70.6437 51.1647 70.8657C51.0707 71.1968 51.0233 71.5393 51.0237 71.8834V74.2348C51.0237 74.5506 51.059 74.7963 51.059 74.9717C51.0502 75.1247 51.0621 75.2781 51.0942 75.428C51.0942 75.5332 51.1295 75.6385 51.1295 75.7087C50.6188 75.7347 50.1128 75.5996 49.6837 75.3227C49.5081 75.1575 49.3725 74.9548 49.287 74.7299C49.2015 74.505 49.1683 74.2637 49.1901 74.0242L49.2253 71.9185Z" fill="#73308A"/>
<path d="M62.5193 74.2699V75.0068C62.5105 75.1598 62.5224 75.3132 62.5545 75.4631C62.5545 75.5683 62.5898 75.6736 62.5898 75.7438C62.0796 75.7647 61.5752 75.63 61.1441 75.3578C60.7914 75.1121 60.6504 74.6559 60.6504 74.0593L60.6856 67.6722C60.6639 67.2599 60.7489 66.8491 60.9325 66.4789C61.0999 66.1676 61.3422 65.9023 61.6377 65.7069C61.9574 65.4954 62.3175 65.352 62.6956 65.2857C63.1187 65.2156 63.5419 65.1454 64.0355 65.1103C64.5434 65.0777 65.0534 65.1131 65.5518 65.2156C66.0753 65.313 66.5769 65.5031 67.0328 65.7771C67.4903 66.0454 67.8771 66.4184 68.1612 66.865C68.5017 67.373 68.6743 67.9742 68.6548 68.5846C68.6809 69.0247 68.621 69.4657 68.4785 69.8831C68.3386 70.3254 68.124 70.7408 67.8438 71.1114C67.5269 71.4958 67.1299 71.8072 66.6802 72.0238C66.1275 72.2745 65.5241 72.3946 64.9171 72.3748C64.5985 72.3715 64.2805 72.3481 63.965 72.3046C63.7031 72.2779 63.4438 72.231 63.1892 72.1642C62.9424 72.094 62.6956 72.0238 62.484 71.9536V74.2699H62.5193ZM64.5997 70.8306C65.1818 70.8554 65.7508 70.654 66.1865 70.2691C66.6096 69.8831 66.786 69.3216 66.7507 68.5495C66.7371 68.1931 66.6406 67.8447 66.4686 67.5318C66.3364 67.2665 66.1277 67.0466 65.8691 66.9001C65.6046 66.753 65.3193 66.6465 65.0229 66.5842C64.696 66.5369 64.3649 66.5251 64.0355 66.5491C63.7793 66.5573 63.5274 66.617 63.295 66.7246C63.126 66.7889 62.9705 66.8841 62.8366 67.0054C62.724 67.098 62.6387 67.2193 62.5898 67.3563C62.5493 67.4813 62.5256 67.6111 62.5193 67.7423V70.4095C62.6956 70.4797 62.9071 70.5499 63.1187 70.6201C63.3303 70.6903 63.5419 70.7253 63.7887 70.7604C64.057 70.8028 64.3281 70.8262 64.5997 70.8306Z" fill="#73308A"/>
<path d="M69.4303 71.8834C69.7089 71.6986 70.0199 71.5676 70.3471 71.4974C71.2075 71.2874 72.1088 71.3116 72.9565 71.5676C72.9279 71.278 72.8567 70.9942 72.745 70.7253C72.635 70.4369 72.4214 70.1993 72.1455 70.0585C72.0456 70.0078 71.9386 69.9724 71.8281 69.9533C71.7013 69.9226 71.5706 69.9107 71.4403 69.9182H71.2639C71.1206 69.9243 70.9785 69.9479 70.8408 69.9884C70.6949 70.0192 70.553 70.0663 70.4177 70.1287C70.2766 70.1638 70.1356 70.234 69.9945 70.2691C69.8569 70.3096 69.7148 70.3331 69.5714 70.3393C69.424 70.3378 69.279 70.3017 69.1482 70.234C69.0171 70.1424 68.9086 70.0225 68.8309 69.8831L68.7956 69.8129L68.8309 69.7778C69.1348 69.4601 69.493 69.1987 69.8887 69.0057C70.3068 68.7993 70.7627 68.6798 71.2287 68.6548H71.5108C71.9468 68.6445 72.3798 68.7283 72.7802 68.9004C73.1566 69.0603 73.4935 69.2998 73.7675 69.6023C74.3632 70.2806 74.6783 71.1585 74.6491 72.0589V72.1642C74.6841 73.0857 74.3975 73.9909 73.8381 74.7261C73.588 75.0562 73.2614 75.3211 72.886 75.4981C72.5034 75.7047 72.0843 75.8358 71.6518 75.8842H71.2639C71.0393 75.8764 70.8154 75.8529 70.594 75.814C70.3604 75.7815 70.134 75.7103 69.924 75.6034C69.6976 75.5153 69.4841 75.3973 69.2893 75.2525C69.0981 75.0903 68.9318 74.9011 68.7956 74.691C68.6022 74.3596 68.4932 73.986 68.4783 73.6031V73.4978C68.4632 73.1533 68.5489 72.812 68.7251 72.5151C68.9175 72.2617 69.1569 72.0473 69.4303 71.8834ZM72.5686 72.5853C72.4276 72.5502 72.2865 72.5502 72.1102 72.5151C71.9473 72.4872 71.7819 72.4754 71.6166 72.48C71.4746 72.4743 71.3325 72.4861 71.1934 72.5151C71.0727 72.5183 70.9535 72.5421 70.8408 72.5853C70.6116 72.6409 70.4108 72.7782 70.2766 72.9714C70.2414 73.0416 70.1708 73.1117 70.1708 73.1819C70.1708 73.2521 70.1356 73.3574 70.1003 73.4276V73.568C70.0946 73.6745 70.1065 73.7812 70.1356 73.8838C70.1806 73.9961 70.2398 74.1023 70.3119 74.1997C70.4077 74.3088 70.5287 74.3931 70.6645 74.4453C70.8657 74.5265 71.0824 74.5625 71.2992 74.5506H71.4755C71.7415 74.5443 71.9995 74.4587 72.216 74.3049C72.3056 74.2437 72.3883 74.1731 72.4629 74.0944C72.5415 74.0147 72.6017 73.9189 72.6392 73.8136C72.746 73.6294 72.8177 73.4272 72.8507 73.217C72.8894 73.032 72.913 72.8443 72.9213 72.6555H72.8507C72.8155 72.6555 72.7802 72.6204 72.7097 72.6204C72.6603 72.6219 72.6115 72.6097 72.5686 72.5853Z" fill="#73308A"/>
<path d="M79.6918 74.4102V74.5155C79.7205 74.5818 79.7326 74.6541 79.7271 74.7261C79.7297 74.8957 79.6935 75.0637 79.6213 75.2174C79.5466 75.3686 79.4381 75.5007 79.3039 75.6034C79.0068 75.817 78.6477 75.9279 78.2813 75.9193C77.9412 75.917 77.6052 75.8453 77.294 75.7087C76.9621 75.5413 76.6634 75.3154 76.4124 75.0419C76.145 74.7017 75.931 74.323 75.7777 73.9189C75.6161 73.4078 75.5329 72.8754 75.5309 72.3397V67.988C75.5091 67.7485 75.5423 67.5072 75.6278 67.2823C75.7133 67.0574 75.849 66.8547 76.0246 66.6895C76.4382 66.4075 76.9347 66.2716 77.435 66.3035C77.435 66.3737 77.3998 66.4789 77.3998 66.5842C77.3998 66.6895 77.3645 66.8299 77.3645 67.0405V68.725H79.4097C79.423 69.1233 79.2844 69.512 79.0218 69.8129C78.8828 69.9599 78.7125 70.074 78.5233 70.1469C78.3341 70.2198 78.131 70.2496 77.9287 70.234H77.3645V72.3748C77.3574 72.7287 77.3929 73.0821 77.4703 73.4276C77.5256 73.6811 77.6337 73.9202 77.7877 74.1295C77.9097 74.2942 78.0691 74.4277 78.253 74.5192C78.4369 74.6107 78.6399 74.6576 78.8455 74.6559C79.0237 74.6498 79.2009 74.6263 79.3744 74.5857C79.5155 74.4453 79.586 74.4102 79.6918 74.4102Z" fill="#73308A"/>
<path d="M96.1234 74.4102V74.5155C96.1522 74.5818 96.1643 74.6541 96.1587 74.7261C96.1613 74.8957 96.1251 75.0637 96.0529 75.2174C95.9783 75.3686 95.8697 75.5007 95.7356 75.6034C95.4385 75.817 95.0793 75.9279 94.713 75.9193C94.3729 75.917 94.0368 75.8453 93.7256 75.7087C93.3937 75.5413 93.095 75.3154 92.8441 75.0419C92.5767 74.7017 92.3627 74.323 92.2094 73.9189C92.0478 73.4078 91.9646 72.8754 91.9625 72.3397V67.988C91.9408 67.7485 91.9739 67.5072 92.0594 67.2823C92.1449 67.0574 92.2806 66.8547 92.4562 66.6895C92.8698 66.4075 93.3664 66.2716 93.8667 66.3035C93.8667 66.3737 93.8314 66.4789 93.8314 66.5842C93.8314 66.6895 93.7962 66.8299 93.7962 67.0405V68.725H95.8413C95.8546 69.1233 95.7161 69.512 95.4535 69.8129C95.3144 69.9599 95.1441 70.074 94.9549 70.1469C94.7658 70.2198 94.5626 70.2496 94.3603 70.234H93.7962V72.3748C93.789 72.7287 93.8245 73.0821 93.9019 73.4276C93.9572 73.6811 94.0653 73.9202 94.2193 74.1295C94.3413 74.2942 94.5008 74.4277 94.6847 74.5192C94.8685 74.6107 95.0716 74.6576 95.2772 74.6559C95.4553 74.6498 95.6325 74.6263 95.8061 74.5857C95.8396 74.532 95.8864 74.4877 95.9419 74.457C95.9974 74.4263 96.0599 74.4102 96.1234 74.4102Z" fill="#73308A"/>
<path d="M87.0968 74.2698V75.0068C87.088 75.1598 87.0999 75.3132 87.1321 75.4631C87.1321 75.5683 87.1673 75.6736 87.1673 75.7438C86.6566 75.7698 86.1507 75.6347 85.7216 75.3578C85.546 75.1926 85.4103 74.9899 85.3248 74.765C85.2393 74.5401 85.2062 74.2988 85.2279 74.0593V71.9185C85.246 71.5735 85.1982 71.2281 85.0869 70.9008C85.0178 70.6846 84.9103 70.4826 84.7695 70.3042C84.6487 70.1668 84.4889 70.0689 84.3111 70.0235C84.149 69.9853 83.9838 69.9618 83.8174 69.9533C83.6507 69.9569 83.4849 69.9804 83.3238 70.0235C83.146 70.0689 82.9862 70.1668 82.8654 70.3042C82.7116 70.4738 82.6025 70.6789 82.548 70.9008C82.4683 71.234 82.4327 71.5762 82.4422 71.9185V75.0068C82.4335 75.1598 82.4453 75.3132 82.4775 75.4631C82.4775 75.5683 82.5127 75.6736 82.5127 75.7438C82.002 75.7698 81.4961 75.6347 81.067 75.3578C80.8914 75.1926 80.7557 74.9899 80.6702 74.765C80.5847 74.5401 80.5516 74.2988 80.5734 74.0593V66.9352C80.5499 66.6985 80.5787 66.4597 80.6579 66.2354C80.7371 66.011 80.8647 65.8067 81.0318 65.6367C81.4453 65.3547 81.9419 65.2188 82.4422 65.2506C82.4422 65.3208 82.407 65.391 82.407 65.5314C82.407 65.6718 82.3717 65.7771 82.3717 65.9876V68.8653C82.6023 68.7904 82.838 68.7318 83.0769 68.6899C83.3109 68.6615 83.5466 68.6498 83.7822 68.6548C84.1861 68.6515 84.5889 68.6986 84.9811 68.7952C85.3685 68.8711 85.7316 69.0397 86.0389 69.2865C86.3783 69.5565 86.6449 69.9062 86.8147 70.3042C87.0318 70.826 87.1282 71.3897 87.0968 71.9536V74.2698Z" fill="#73308A"/>
<path d="M102.576 69.7076C102.894 70.0303 103.146 70.4118 103.317 70.8306C103.682 71.7289 103.695 72.7311 103.352 73.6382C103.193 74.0468 102.966 74.4263 102.682 74.7612C102.392 75.0944 102.031 75.3583 101.624 75.5333C101.178 75.7205 100.698 75.816 100.214 75.814C99.7638 75.8126 99.3193 75.7169 98.909 75.5333C98.4972 75.3499 98.1257 75.0876 97.8159 74.7612C97.5086 74.4369 97.2689 74.0552 97.1106 73.6382C96.7452 72.7399 96.7326 71.7377 97.0754 70.8306C97.2211 70.4155 97.4489 70.0337 97.7454 69.7076C98.0351 69.3744 98.3967 69.1104 98.8032 68.9355C99.2496 68.7483 99.7293 68.6528 100.214 68.6548C100.674 68.6603 101.13 68.7557 101.554 68.9355C101.944 69.1203 102.292 69.3831 102.576 69.7076ZM100.178 74.5857C100.337 74.5806 100.492 74.5449 100.637 74.4804C100.83 74.4087 101 74.2876 101.13 74.1295C101.307 73.9187 101.45 73.6819 101.554 73.4276C101.789 72.6493 101.789 71.8195 101.554 71.0412C101.472 70.7765 101.327 70.5355 101.13 70.3393C100.993 70.1886 100.825 70.0689 100.637 69.9884C100.494 69.9199 100.337 69.8844 100.178 69.8844C100.02 69.8844 99.8631 69.9199 99.72 69.9884C99.5273 70.0601 99.3571 70.1812 99.2264 70.3393C99.0421 70.5446 98.8985 70.7828 98.8032 71.0412C98.5681 71.8195 98.5681 72.6493 98.8032 73.4276C98.8848 73.6923 99.03 73.9333 99.2264 74.1295C99.3638 74.2802 99.5322 74.3999 99.72 74.4804C99.8657 74.5413 100.021 74.5769 100.178 74.5857Z" fill="#73308A"/>
<path d="M116.188 73.2872C116.434 72.2344 116.646 71.2518 116.822 70.3393C116.928 69.9533 116.999 69.5672 117.104 69.1812C117.21 68.7952 117.281 68.4091 117.351 68.0933C117.422 67.7774 117.492 67.4616 117.563 67.1808C117.633 66.9001 117.669 66.6895 117.704 66.5491C117.768 66.183 117.954 65.8491 118.233 65.6016C118.45 65.4384 118.705 65.3301 118.973 65.2858C119.281 65.2579 119.591 65.2816 119.89 65.3559C119.872 65.425 119.861 65.4954 119.855 65.5665C119.827 65.647 119.803 65.729 119.784 65.8122C119.741 65.9243 119.717 66.043 119.714 66.1631C119.396 67.5669 119.114 68.8654 118.832 70.0235C118.726 70.5148 118.585 71.0412 118.48 71.5325C118.374 72.0238 118.268 72.4801 118.162 72.9363C118.057 73.3925 117.951 73.7435 117.88 74.0593C117.81 74.3752 117.704 74.5857 117.669 74.7261C117.559 75.0521 117.333 75.3268 117.034 75.4982C116.759 75.6439 116.461 75.739 116.152 75.7789C115.788 75.8187 115.42 75.8069 115.059 75.7438C114.848 74.7261 114.636 73.7786 114.46 72.831C114.389 72.445 114.284 72.0238 114.213 71.6378C114.142 71.2518 114.037 70.8306 113.966 70.4446C113.896 70.0586 113.825 69.7076 113.755 69.3567C113.684 69.0057 113.649 68.725 113.578 68.4793C113.508 68.7952 113.437 69.1812 113.367 69.5673C113.296 69.9533 113.226 70.4095 113.155 70.8657C113.085 71.322 113.014 71.7431 112.908 72.1993C112.803 72.6555 112.732 73.0416 112.661 73.4276C112.591 73.8137 112.52 74.1295 112.45 74.4103C112.41 74.6075 112.339 74.7971 112.238 74.9718C112.089 75.2399 111.853 75.45 111.568 75.5684C111.296 75.6713 111.011 75.742 110.722 75.7789C110.381 75.8017 110.038 75.79 109.699 75.7438L108.642 71.4272L108.218 69.7427C108.077 69.1812 107.972 68.6548 107.831 68.1986C107.69 67.7424 107.619 67.2861 107.513 66.9352C107.407 66.5842 107.372 66.3035 107.337 66.1631C107.302 66.0227 107.266 65.9175 107.231 65.8122C107.212 65.729 107.189 65.647 107.161 65.5665C107.132 65.5002 107.12 65.4279 107.125 65.3559C107.41 65.2644 107.712 65.2404 108.007 65.2858C108.276 65.3301 108.53 65.4384 108.747 65.6016C109.033 65.8433 109.221 66.18 109.276 66.5491C109.339 66.756 109.386 66.9672 109.417 67.1808C109.488 67.4616 109.558 67.7424 109.629 68.0933C109.699 68.4442 109.805 68.7952 109.876 69.1812C109.946 69.5672 110.052 69.9533 110.158 70.3393C110.369 71.2518 110.581 72.2344 110.793 73.2872C111.004 72.094 111.216 71.0061 111.427 69.9884C111.498 69.5673 111.604 69.1461 111.674 68.725C111.745 68.3039 111.85 67.9178 111.921 67.5669C111.991 67.2159 112.062 66.9001 112.133 66.6544C112.203 66.4088 112.274 66.1982 112.309 66.0929C112.417 65.8143 112.616 65.5796 112.873 65.4261C113.085 65.3245 113.311 65.2536 113.543 65.2156C113.806 65.1811 114.074 65.2175 114.319 65.3208C114.354 65.4261 114.425 65.6367 114.495 65.9175C114.566 66.1982 114.671 66.5491 114.742 66.9352C114.812 67.3212 114.918 67.7774 115.024 68.2337C115.13 68.6899 115.236 69.1812 115.306 69.6374C115.694 70.8295 115.989 72.0498 116.188 73.2872Z" fill="#73308A"/>
<path d="M125.356 74.2698C125.499 74.3586 125.62 74.4786 125.709 74.6208L125.744 74.6559L125.709 74.691C125.37 75.0488 124.962 75.3352 124.51 75.5332C124.046 75.7451 123.54 75.8529 123.029 75.8491C122.579 75.8476 122.135 75.752 121.724 75.5683C121.313 75.385 120.941 75.1226 120.631 74.7962C120.324 74.4719 120.084 74.0902 119.926 73.6732C119.561 72.775 119.548 71.7728 119.891 70.8657C120.044 70.4436 120.271 70.0516 120.561 69.7076C120.86 69.3848 121.219 69.1227 121.619 68.9355C122.065 68.7483 122.545 68.6528 123.029 68.6548C123.34 68.6524 123.65 68.6998 123.946 68.7951C124.291 68.8621 124.617 69.0061 124.898 69.2163C125.195 69.4064 125.447 69.6577 125.638 69.9533C125.826 70.2851 125.924 70.6602 125.921 71.0412C125.935 71.4065 125.823 71.7657 125.603 72.0589C125.399 72.3048 125.147 72.5076 124.863 72.6555C124.571 72.7972 124.263 72.9032 123.946 72.9713C123.667 73.0268 123.383 73.0503 123.1 73.0415C122.769 73.0395 122.44 73.016 122.112 72.9713C121.921 72.9531 121.733 72.9178 121.548 72.8661C121.561 73.1735 121.646 73.4738 121.795 73.7434C121.886 73.9534 122.032 74.1352 122.218 74.2698C122.354 74.3883 122.509 74.4832 122.676 74.5506C122.814 74.591 122.956 74.6146 123.1 74.6208C123.301 74.6168 123.502 74.5933 123.699 74.5506C123.879 74.5203 124.056 74.4733 124.228 74.4102C124.369 74.3751 124.51 74.3049 124.651 74.2698C124.778 74.2325 124.908 74.209 125.039 74.1996C125.094 74.1873 125.151 74.1872 125.206 74.1993C125.26 74.2115 125.312 74.2355 125.356 74.2698ZM123.029 69.9182C122.898 69.9275 122.768 69.951 122.641 69.9883C122.475 70.0423 122.32 70.1255 122.183 70.234C122.01 70.3733 121.877 70.5546 121.795 70.7604C121.661 71.0237 121.578 71.3092 121.548 71.6027C121.78 71.6632 122.016 71.7101 122.253 71.7431C122.545 71.7897 122.841 71.8015 123.135 71.7781C123.409 71.7553 123.674 71.6713 123.911 71.5325C124.023 71.4511 124.116 71.346 124.183 71.2247C124.25 71.1034 124.29 70.9688 124.299 70.8306C124.313 70.7098 124.294 70.5874 124.245 70.4762C124.195 70.3651 124.116 70.2693 124.016 70.1989C123.729 69.9968 123.381 69.8978 123.029 69.9182Z" fill="#73308A"/>
<path d="M130.152 74.3751C130.183 74.6114 130.159 74.8515 130.081 75.077C130.03 75.28 129.92 75.4632 129.764 75.6034C129.575 75.7852 129.322 75.886 129.059 75.8842C128.784 75.9259 128.503 75.8894 128.248 75.7789C128.03 75.6793 127.828 75.5493 127.648 75.3929C127.498 75.2153 127.378 75.0135 127.296 74.7963C127.223 74.5572 127.188 74.3088 127.19 74.0593V66.7246C127.19 66.4088 127.155 66.1631 127.155 65.9876C127.163 65.8347 127.151 65.6812 127.119 65.5314C127.119 65.4261 127.084 65.3208 127.084 65.2506C127.595 65.2247 128.101 65.3598 128.53 65.6367C128.705 65.8019 128.841 66.0045 128.926 66.2295C129.012 66.4544 129.045 66.6957 129.023 66.9352V73.8838C129 74.0708 129.051 74.2594 129.164 74.4102C129.243 74.5073 129.357 74.5701 129.482 74.5857C129.6 74.609 129.723 74.5968 129.834 74.5506C130.011 74.4804 130.116 74.4453 130.152 74.3751Z" fill="#73308A"/>
<path d="M133.854 74.3751C133.885 74.6114 133.861 74.8515 133.783 75.077C133.733 75.28 133.622 75.4632 133.466 75.6034C133.277 75.7852 133.024 75.886 132.761 75.8842C132.486 75.9259 132.205 75.8894 131.95 75.7789C131.733 75.6793 131.531 75.5493 131.35 75.3929C131.2 75.2153 131.08 75.0135 130.998 74.7963C130.926 74.5572 130.89 74.3088 130.892 74.0593V66.7246C130.892 66.4088 130.857 66.1631 130.857 65.9876C130.865 65.8347 130.854 65.6812 130.821 65.5314C130.821 65.4261 130.786 65.3208 130.786 65.2506C131.297 65.2247 131.803 65.3598 132.232 65.6367C132.407 65.8019 132.543 66.0045 132.629 66.2295C132.714 66.4544 132.747 66.6957 132.726 66.9352V73.8838C132.703 74.0708 132.753 74.2594 132.867 74.4102C132.946 74.5073 133.059 74.5701 133.184 74.5857C133.302 74.609 133.425 74.5968 133.537 74.5506C133.713 74.4804 133.819 74.4453 133.854 74.3751Z" fill="#73308A"/>
<path d="M134.947 71.9185C134.933 71.3558 135.029 70.7956 135.229 70.2691C135.408 69.886 135.66 69.5405 135.97 69.2514C136.277 69.0046 136.64 68.836 137.027 68.7601C137.41 68.6788 137.8 68.6318 138.191 68.6197C138.584 68.6144 138.975 68.6616 139.355 68.7601C139.742 68.836 140.105 69.0046 140.413 69.2514C140.752 69.5214 141.019 69.8711 141.188 70.2691C141.405 70.7909 141.502 71.3546 141.47 71.9185L141.541 75.7087C141.041 75.7353 140.546 75.5998 140.131 75.3227C139.955 75.1575 139.819 74.9548 139.734 74.7299C139.648 74.505 139.615 74.2637 139.637 74.0242V71.8834C139.655 71.5384 139.607 71.193 139.496 70.8657C139.43 70.6407 139.309 70.4356 139.143 70.2691C139.022 70.1316 138.863 70.0338 138.685 69.9884C138.511 69.9478 138.334 69.9243 138.156 69.9182C137.989 69.9218 137.823 69.9453 137.662 69.9884C137.484 70.0338 137.325 70.1316 137.204 70.2691C137.05 70.4387 136.941 70.6437 136.886 70.8657C136.792 71.1968 136.745 71.5393 136.745 71.8834V74.2348C136.745 74.5506 136.781 74.7963 136.781 74.9717C136.772 75.1247 136.784 75.2781 136.816 75.428C136.816 75.5332 136.851 75.6385 136.851 75.7087C136.34 75.7347 135.835 75.5996 135.405 75.3227C135.23 75.1575 135.094 74.9548 135.009 74.7299C134.923 74.505 134.89 74.2637 134.912 74.0242L134.947 71.9185Z" fill="#73308A"/>
<path d="M148.452 74.2698C148.595 74.3586 148.716 74.4786 148.805 74.6208L148.84 74.6559L148.805 74.691C148.466 75.0488 148.058 75.3352 147.606 75.5332C147.141 75.7451 146.636 75.8529 146.125 75.8491C145.675 75.8476 145.23 75.752 144.82 75.5683C144.408 75.385 144.037 75.1226 143.727 74.7962C143.42 74.4719 143.18 74.0902 143.022 73.6732C142.656 72.775 142.644 71.7728 142.987 70.8657C143.14 70.4436 143.367 70.0516 143.656 69.7076C143.956 69.3848 144.315 69.1227 144.714 68.9355C145.161 68.7483 145.64 68.6528 146.125 68.6548C146.436 68.6524 146.746 68.6998 147.042 68.7951C147.387 68.8621 147.712 69.0061 147.994 69.2163C148.291 69.4064 148.543 69.6577 148.734 69.9533C148.922 70.2851 149.019 70.6602 149.016 71.0412C149.03 71.4065 148.918 71.7657 148.699 72.0589C148.494 72.3048 148.243 72.5076 147.958 72.6555C147.667 72.7972 147.359 72.9032 147.042 72.9713C146.763 73.0268 146.479 73.0503 146.195 73.0415C145.865 73.0395 145.535 73.016 145.208 72.9713C145.017 72.9531 144.828 72.9178 144.644 72.8661C144.657 73.1735 144.742 73.4738 144.891 73.7434C144.982 73.9534 145.128 74.1352 145.314 74.2698C145.45 74.3883 145.605 74.4832 145.772 74.5506C145.91 74.591 146.052 74.6146 146.195 74.6208C146.397 74.6168 146.598 74.5933 146.795 74.5506C146.975 74.5203 147.152 74.4733 147.324 74.4102C147.465 74.3751 147.606 74.3049 147.747 74.2698C147.873 74.2325 148.003 74.209 148.135 74.1996C148.19 74.1873 148.246 74.1872 148.301 74.1993C148.356 74.2115 148.408 74.2355 148.452 74.2698ZM146.125 69.9182C145.993 69.9275 145.863 69.951 145.737 69.9883C145.571 70.0423 145.415 70.1255 145.279 70.234C145.106 70.3733 144.972 70.5546 144.891 70.7604C144.757 71.0237 144.673 71.3092 144.644 71.6027C144.876 71.6632 145.111 71.7101 145.349 71.7431C145.64 71.7897 145.936 71.8015 146.231 71.7781C146.504 71.7553 146.77 71.6713 147.006 71.5325C147.119 71.4511 147.212 71.346 147.279 71.2247C147.346 71.1034 147.386 70.9688 147.394 70.8306C147.409 70.7098 147.39 70.5874 147.34 70.4762C147.291 70.3651 147.212 70.2693 147.112 70.1989C146.824 69.9968 146.476 69.8978 146.125 69.9182Z" fill="#73308A"/>
<path d="M153.46 73.954C153.475 73.8777 153.47 73.7988 153.445 73.7251C153.42 73.6513 153.377 73.5851 153.319 73.5329C153.171 73.4039 153.005 73.2975 152.825 73.217C152.614 73.1118 152.367 73.0065 152.05 72.8661C151.727 72.7364 151.419 72.5716 151.133 72.3748C150.905 72.2487 150.702 72.0822 150.533 71.8835C150.389 71.6887 150.271 71.4764 150.181 71.2518C150.109 71.0248 150.073 70.7879 150.075 70.5499C150.083 70.3061 150.143 70.0669 150.251 69.848C150.351 69.6424 150.482 69.4531 150.639 69.2865C150.807 69.1465 150.984 69.0176 151.168 68.9004C151.356 68.7995 151.558 68.7284 151.768 68.6899C151.953 68.6514 152.142 68.6279 152.332 68.6197H152.508C153.021 68.6566 153.524 68.7874 153.989 69.0057C154.424 69.2301 154.808 69.5406 155.118 69.9182L155.153 69.9533L155.118 70.0235C155.03 70.1457 154.923 70.2524 154.8 70.3393C154.684 70.4111 154.549 70.4477 154.412 70.4446C154.269 70.4384 154.127 70.4149 153.989 70.3744C153.848 70.3042 153.707 70.2691 153.566 70.1989C153.425 70.1287 153.178 70.0586 153.037 69.9884C152.879 69.9331 152.711 69.9092 152.543 69.9182C152.367 69.9016 152.191 69.9517 152.05 70.0586C151.947 70.1529 151.873 70.2748 151.838 70.4095C151.824 70.4995 151.832 70.5917 151.863 70.6776C151.894 70.7634 151.946 70.8402 152.014 70.9008C152.199 71.0604 152.415 71.1799 152.649 71.2518C152.967 71.3921 153.284 71.5325 153.637 71.6729C153.977 71.8178 154.297 72.0066 154.589 72.2344C154.866 72.4449 155.085 72.7229 155.223 73.0416C155.361 73.4135 155.374 73.8201 155.259 74.1997C155.206 74.3986 155.123 74.5881 155.012 74.7612C154.896 74.9764 154.726 75.1578 154.518 75.2876C154.282 75.4576 154.02 75.588 153.742 75.6736C153.39 75.7915 153.021 75.8508 152.649 75.8491H152.438C151.934 75.82 151.442 75.6886 150.992 75.4631C150.547 75.2394 150.151 74.9291 149.828 74.5506L149.793 74.5155L149.828 74.4453C149.876 74.3669 149.936 74.2959 150.005 74.2348C150.075 74.1997 150.11 74.1295 150.181 74.0944C150.286 74.0277 150.408 73.9913 150.533 73.9891C150.677 73.9953 150.819 74.0188 150.957 74.0593C151.098 74.1295 151.239 74.1646 151.38 74.2348C151.536 74.3142 151.702 74.3731 151.873 74.4102C152.05 74.4453 152.261 74.4804 152.473 74.5155C152.749 74.5419 153.025 74.467 153.249 74.305C153.308 74.2663 153.358 74.2146 153.395 74.1538C153.432 74.093 153.454 74.0247 153.46 73.954Z" fill="#73308A"/>
<path d="M159.772 73.954C159.787 73.8777 159.781 73.7988 159.757 73.7251C159.732 73.6513 159.689 73.5851 159.631 73.5329C159.483 73.4039 159.316 73.2975 159.137 73.217C158.925 73.1118 158.679 73.0065 158.361 72.8661C158.038 72.7364 157.731 72.5716 157.444 72.3748C157.216 72.2487 157.013 72.0822 156.845 71.8835C156.701 71.6887 156.582 71.4764 156.492 71.2518C156.42 71.0248 156.385 70.7879 156.387 70.5499C156.395 70.3061 156.455 70.0669 156.563 69.848C156.663 69.6424 156.794 69.4531 156.951 69.2865C157.118 69.1465 157.295 69.0176 157.48 68.9004C157.667 68.7995 157.869 68.7284 158.079 68.6899C158.265 68.6514 158.454 68.6279 158.643 68.6197H158.82C159.333 68.6566 159.835 68.7874 160.301 69.0057C160.735 69.2301 161.119 69.5406 161.429 69.9182L161.464 69.9533L161.429 70.0235C161.342 70.1457 161.234 70.2524 161.112 70.3393C160.995 70.4111 160.861 70.4477 160.724 70.4446C160.58 70.4384 160.438 70.4149 160.301 70.3744C160.16 70.3042 160.019 70.2691 159.878 70.1989C159.736 70.1287 159.49 70.0586 159.349 69.9884C159.19 69.9331 159.022 69.9092 158.855 69.9182C158.678 69.9016 158.502 69.9517 158.361 70.0586C158.258 70.1529 158.185 70.2748 158.15 70.4095C158.135 70.4995 158.144 70.5917 158.175 70.6776C158.206 70.7634 158.258 70.8402 158.326 70.9008C158.511 71.0604 158.727 71.1799 158.961 71.2518C159.278 71.3921 159.595 71.5325 159.948 71.6729C160.289 71.8178 160.609 72.0066 160.9 72.2344C161.178 72.4449 161.396 72.7229 161.535 73.0416C161.673 73.4135 161.685 73.8201 161.57 74.1997C161.518 74.3986 161.435 74.5881 161.323 74.7612C161.198 74.9692 161.029 75.1486 160.83 75.2876C160.594 75.4576 160.332 75.588 160.054 75.6736C159.702 75.7915 159.332 75.8508 158.961 75.8491H158.749C158.246 75.82 157.754 75.6886 157.303 75.4631C156.858 75.2394 156.462 74.9291 156.14 74.5506L156.104 74.5155L156.14 74.4453C156.188 74.3669 156.247 74.2959 156.316 74.2348C156.387 74.1997 156.422 74.1295 156.492 74.0944C156.598 74.0277 156.72 73.9913 156.845 73.9891C156.988 73.9953 157.13 74.0188 157.268 74.0593C157.409 74.1295 157.55 74.1646 157.691 74.2348C157.848 74.3142 158.013 74.3731 158.185 74.4102C158.361 74.4453 158.573 74.4804 158.784 74.5155C159.06 74.5419 159.336 74.467 159.56 74.305C159.62 74.2663 159.67 74.2146 159.707 74.1538C159.743 74.093 159.766 74.0247 159.772 73.954Z" fill="#73308A"/>
<path d="M71.7581 49.8443C72.428 46.7911 73.0628 43.9836 73.6269 41.3866C73.8738 40.2987 74.1559 39.1757 74.4027 38.0526C74.6495 36.9296 74.8964 35.8768 75.1079 34.8942C75.3195 33.9115 75.5311 33.0342 75.7074 32.2621C75.8837 31.49 76.0247 30.8934 76.1305 30.4723C76.4479 29.2089 76.9416 28.2965 77.6468 27.77C78.2526 27.2907 78.9667 26.9655 79.7272 26.8225C80.6025 26.7212 81.4892 26.7928 82.3366 27.0331C82.3013 27.1734 82.2661 27.3489 82.1956 27.5946C82.125 27.8402 82.0545 28.0508 81.984 28.2965C81.9135 28.5421 81.8429 28.9282 81.7372 29.3142C80.8204 33.35 80.0093 37.07 79.1983 40.4741C78.8457 41.913 78.4931 43.3519 78.1757 44.7907C77.8584 46.2296 77.5057 47.5632 77.2236 48.7915C76.9416 50.0198 76.6242 51.0726 76.3774 51.985C76.2119 52.627 76.0118 53.2596 75.7779 53.8801C75.4583 54.8258 74.7905 55.6158 73.909 56.0911C73.1221 56.4963 72.278 56.7803 71.4054 56.9333C70.3719 57.0313 69.3304 57.0078 68.3024 56.8631C67.6677 53.9854 67.0682 51.1779 66.5393 48.5107C66.2925 47.3877 66.0809 46.2296 65.8341 45.0364C65.5872 43.8432 65.3404 42.7202 65.1288 41.5972C64.9173 40.4741 64.7057 39.4564 64.5294 38.5089C64.3531 37.5613 64.1768 36.7191 64.071 36.0172C63.8947 36.9296 63.7184 37.9825 63.5068 39.1757C63.2952 40.3689 63.0837 41.5972 62.8721 42.8956C62.6605 44.1941 62.4137 45.4575 62.2021 46.7209C61.9905 47.9843 61.7437 49.1424 61.5321 50.2303C61.3206 51.3183 61.109 52.2307 60.8974 53.0379C60.7799 53.5979 60.5903 54.1405 60.3332 54.6522C59.9328 55.4472 59.2562 56.0706 58.4291 56.4069C57.6618 56.7164 56.8546 56.9172 56.0313 57.0035C55.0536 57.077 54.0706 57.0299 53.1045 56.8631C52.0114 52.336 51.0241 48.1949 50.1073 44.4398C49.6841 42.8605 49.2963 41.2462 48.9437 39.6319C48.591 38.0176 48.2032 36.5436 47.8858 35.1749C47.5684 33.8062 47.2511 32.613 47.0043 31.5602C46.7574 30.5074 46.5811 29.8055 46.4753 29.3142C46.3757 28.9794 46.2933 28.6397 46.2285 28.2965C46.1823 28.0595 46.1235 27.8252 46.0522 27.5946C45.9817 27.3489 45.9464 27.1734 45.9111 27.0331C46.7466 26.7933 47.6217 26.7217 48.4852 26.8225C49.2501 26.9517 49.9675 27.2784 50.5657 27.77C51.2709 28.2965 51.7999 29.1738 52.1525 30.4723C52.2583 30.8934 52.3993 31.4549 52.5756 32.2621C52.7519 33.0693 52.9635 33.9115 53.1751 34.8942C53.3866 35.8768 53.6335 36.9296 53.8803 38.0526C54.1271 39.1757 54.374 40.2987 54.6561 41.3866C55.2203 43.9836 55.855 46.8262 56.5249 49.8443C57.1597 46.4051 57.7591 43.2466 58.3233 40.3689C58.5701 39.1406 58.7817 37.9474 59.0285 36.7191C59.2754 35.4908 59.5222 34.3678 59.7338 33.35C59.9453 32.3323 60.1922 31.4198 60.3685 30.6829C60.4885 30.1322 60.6536 29.5923 60.8622 29.0685C61.2853 28.1561 61.8142 27.4893 62.4489 27.1734C63.0445 26.8374 63.7061 26.6339 64.3883 26.5768C65.1493 26.5211 65.9142 26.6044 66.6451 26.8225C66.7509 27.1383 66.9272 27.6999 67.1388 28.5421C67.3503 29.3844 67.5972 30.367 67.844 31.49C68.0908 32.613 68.3729 33.8764 68.655 35.21C68.9371 36.5436 69.2192 37.9123 69.5013 39.2809C70.2771 42.4745 71.0176 45.9839 71.7581 49.8443Z" fill="#73308A"/>
<path d="M84.5581 52.6167V31.49C84.5581 29.7704 85.0165 28.507 85.9686 27.77C86.9207 27.0331 88.2959 26.647 90.0942 26.647C90.0448 26.9014 90.0211 27.16 90.0237 27.4191C89.9885 27.735 89.9885 28.1561 89.9532 28.7176C89.9179 29.2791 89.9179 29.9459 89.9179 30.8232L89.8474 51.95C89.8474 53.6696 89.389 54.933 88.4369 55.6699C87.4849 56.4069 86.1449 56.793 84.3818 56.793C84.4313 56.5386 84.4549 56.2799 84.4524 56.0209C84.4876 55.705 84.4876 55.2839 84.4876 54.7224C84.4876 54.1609 84.5229 53.4941 84.5581 52.6167Z" fill="#73308A"/>
<path d="M94.184 30.6127C94.1488 29.7353 94.1487 29.0334 94.1487 28.507C94.1487 27.9806 94.1488 27.5595 94.1135 27.2085C94.0782 26.8576 94.043 26.6119 94.043 26.4365C97.6044 26.4365 99.3675 28.121 99.3675 31.5251L99.438 42.5447C99.438 44.4398 99.6496 50.7918 100.214 51.5288C101.342 53.1081 103.564 52.5114 105.115 52.5114C105.856 52.5114 106.49 52.5115 107.09 52.4764C107.689 52.4413 108.183 52.4413 108.606 52.4062C109.043 52.3824 109.479 52.3356 109.911 52.2658V52.5114C109.903 53.0075 109.796 53.4969 109.593 53.9503C109.354 54.4643 109.019 54.9287 108.606 55.319C108.106 55.7538 107.533 56.0982 106.914 56.3367C106.126 56.6363 105.288 56.7793 104.445 56.7579C102.118 56.7579 97.7455 57.3895 95.7708 55.5997C94.0077 54.0205 94.2193 44.9662 94.2193 42.2289V30.6127H94.184Z" fill="#73308A"/>
<path d="M121.723 26.2259C123.625 26.2186 125.512 26.5514 127.295 27.2085C129.073 27.8453 130.696 28.85 132.055 30.1564C133.508 31.5268 134.65 33.1899 135.405 35.0345C136.262 37.1767 136.682 39.4673 136.639 41.7726C136.688 44.0818 136.256 46.376 135.37 48.5107C134.584 50.3389 133.446 51.9961 132.02 53.3888C130.632 54.6767 129.003 55.6786 127.224 56.3367C125.441 56.9938 123.554 57.3266 121.653 57.3193C121.159 57.3193 120.525 57.3193 119.784 57.2843C119.101 57.2879 118.418 57.2527 117.739 57.179C117.28 57.1088 115.024 57.0386 114.601 57.0386C112.273 57.0386 111.674 54.6873 111.674 53.6695L111.744 33.9115C111.744 31.9462 111.498 28.1561 112.414 27.2085C113.578 26.0153 119.114 26.261 119.855 26.2259H121.723ZM121.723 53.5292C122.866 53.5218 123.999 53.3201 125.073 52.9326C126.196 52.5252 127.2 51.8504 128 50.9673C128.936 49.9176 129.644 48.6871 130.081 47.3526C130.662 45.5267 130.936 43.6175 130.892 41.7024C130.936 39.7874 130.662 37.8782 130.081 36.0523C129.644 34.7178 128.936 33.4872 128 32.4376C127.199 31.5645 126.194 30.9015 125.073 30.5074C123.998 30.1282 122.864 29.9382 121.723 29.9459H120.278C119.765 29.942 119.254 30.0129 118.761 30.1564C118.332 30.2808 117.935 30.4963 117.598 30.7881C117.428 30.9575 117.296 31.1608 117.211 31.3846C117.126 31.6085 117.089 31.8477 117.104 32.0866V51.4235C117.086 51.6627 117.121 51.903 117.206 52.1274C117.291 52.3517 117.425 52.5547 117.598 52.722C117.935 53.0138 118.332 53.2293 118.761 53.3537C119.253 53.4996 119.765 53.5706 120.278 53.5643C120.807 53.5292 121.3 53.5292 121.723 53.5292Z" fill="#73308A"/>
<path d="M161.394 35.8417C160.897 34.4339 160.062 33.1687 158.961 32.1568C157.66 31.0305 156.134 30.193 154.482 29.7002C152.649 29.1036 150.427 28.8931 147.783 28.9983H145.42V22.9972H156.245C157.05 22.9972 157.821 22.6792 158.39 22.1132C158.958 21.5472 159.278 20.7796 159.278 19.9791V19.2421H142.458C141.99 19.2421 141.542 19.427 141.211 19.7561C140.881 20.0852 140.695 20.5315 140.695 20.9969V29.6651C140.69 30.192 140.791 30.7146 140.99 31.2026C141.19 31.6906 141.485 32.1342 141.859 32.5078C142.634 33.3149 143.798 33.7361 145.349 33.7361H148.347C150.78 33.7361 152.719 34.3327 154.165 35.5259C155.611 36.7191 156.351 38.3685 156.351 40.439C156.342 41.0975 156.223 41.7498 155.999 42.3692C155.771 43.1192 155.386 43.8129 154.87 44.4047C154.295 45.0793 153.587 45.6288 152.79 46.019C151.798 46.4837 150.712 46.712 149.616 46.6858C148.705 46.696 147.795 46.6137 146.901 46.4402C146.055 46.2647 145.279 46.0892 144.609 45.8786C143.939 45.6681 143.375 45.4575 142.952 45.282C142.529 45.1066 142.246 44.9662 142.105 44.9311C141.859 44.8609 141.647 44.8258 141.435 44.7556C141.243 44.6868 141.04 44.6512 140.836 44.6504C140.5 44.6617 140.172 44.7583 139.884 44.9311C139.535 45.2028 139.227 45.5217 138.967 45.8786L138.861 46.019C139.789 46.8725 140.806 47.6254 141.894 48.2651C142.969 48.8888 144.103 49.406 145.279 49.8092C146.662 50.2863 148.117 50.5237 149.581 50.5111C151.398 50.5478 153.205 50.238 154.905 49.5986C156.322 49.0481 157.616 48.2253 158.714 47.1771C159.706 46.2321 160.497 45.0984 161.041 43.8432C161.56 42.6775 161.871 41.4304 161.958 40.1583C162.089 38.6957 161.896 37.2223 161.394 35.8417Z" fill="#73308A"/>
<path d="M21.545 56.1964C33.444 56.1964 43.09 52.9596 43.09 48.967C43.09 44.9743 33.444 41.7375 21.545 41.7375C9.64602 41.7375 0 44.9743 0 48.967C0 52.9596 9.64602 56.1964 21.545 56.1964Z" fill="#CFDDBB"/>
<path d="M39.0693 37.9687C39.479 34.6991 31.9626 31.0742 22.2809 29.8723C12.5991 28.6704 4.41835 30.3466 4.00857 33.6162C3.59879 36.8858 11.1152 40.5107 20.7969 41.7126C30.4787 42.9145 38.6595 41.2383 39.0693 37.9687Z" fill="#769D91"/>
<path d="M22.2797 9.21698C27.6987 8.32994 31.7612 5.61084 31.3535 3.14371C30.9458 0.676578 26.2222 -0.604333 20.8032 0.282714C15.3842 1.16976 11.3217 3.88886 11.7294 6.35599C12.1372 8.82312 16.8607 10.104 22.2797 9.21698Z" fill="#C1C4D6"/>
<path d="M21.8492 29.4468C30.6766 28.951 37.6966 26.149 37.5287 23.1882C37.3608 20.2275 30.0687 18.2293 21.2413 18.7251C12.4138 19.2209 5.39391 22.0229 5.56179 24.9837C5.72968 27.9444 13.0218 29.9426 21.8492 29.4468Z" fill="#A87BC9"/>
<path d="M34.89 15.1403C35.0816 12.6667 29.2714 10.2036 21.9123 9.63877C14.5533 9.07394 8.43229 10.6213 8.24061 13.0948C8.04894 15.5684 13.8592 18.0315 21.2182 18.5963C28.5772 19.1611 34.6983 17.6138 34.89 15.1403Z" fill="#8B85CA"/>
</g>
<defs>
<clipPath id="clip0_845_362">
<rect width="162" height="76" fill="white"/>
</clipPath>
</defs>
</svg>
