<svg width="78" height="65" viewBox="0 0 78 65" fill="none" xmlns="http://www.w3.org/2000/svg">
<g>
<path d="M14.5349 17.464C13.7077 13.2197 15.4325 9.85328 20.9723 6.39385C25.7943 3.38266 33.491 0.682078 36.6698 0.140845C38.3023 -0.137504 39.9784 0.00398947 41.5415 0.552086C43.1046 1.10018 44.5035 2.03697 45.6073 3.27479C47.6474 5.5197 49.1107 7.67347 50.0751 10.64C51.2954 14.384 51.2954 18.1206 48.0016 22.19C45.1844 25.6681 37.4432 31.3873 32.0221 33.8293C26.6011 36.2714 22.2816 33.6006 19.4107 28.9675C16.7938 24.74 15.26 21.1373 14.5349 17.464Z" fill="white"/>
<path d="M27.708 37.0533C28.3572 36.0824 29.2233 35.7513 30.6662 36.1438C31.9255 36.473 33.6799 37.468 34.1158 37.8995C34.7575 38.5412 34.9708 39.1829 34.8576 40.1872C34.7762 40.9753 34.5452 41.7404 34.177 42.4414C33.6076 43.5574 32.8157 44.2455 31.766 44.266C30.7162 44.2864 28.5389 44.0409 27.2963 43.4867C26.0537 42.9324 25.9035 41.6082 26.3226 40.1779C26.7177 38.8741 27.1461 37.894 27.708 37.0533Z" fill="white"/>
<path d="M8.04908 64.189C3.04159 64.189 1.25929 60.0079 1.25929 56.4276C1.25929 52.8473 3.03788 48.6625 8.04908 48.6625C13.0603 48.6625 14.8407 52.8473 14.8407 56.4276C14.8407 60.0079 13.0603 64.189 8.04908 64.189ZM8.04908 47.8516C2.51858 47.8516 0 52.2949 0 56.4276C0 60.5603 2.51858 64.9999 8.04908 64.9999C13.5796 64.9999 16.1 60.5566 16.1 56.4276C16.1 52.2986 13.5907 47.8516 8.04908 47.8516Z" fill="white"/>
<path d="M23.4295 52.4702H21.6324V49.1522C21.6324 48.4082 21.2522 48.4082 21.089 48.4082C20.9258 48.4082 20.5326 48.4082 20.5326 49.1522V52.4702H18.7466C18.4777 52.4702 18.3423 52.5818 18.3423 52.8032C18.3423 53.0245 18.4777 53.1324 18.7466 53.1324H20.5419V64.2732C20.5419 65.0004 20.9258 65.0004 21.0983 65.0004C21.2707 65.0004 21.6417 65.0004 21.6417 64.2732V53.1324H23.4388C23.7077 53.1324 23.845 53.0208 23.845 52.8032C23.845 52.5856 23.6984 52.4702 23.4295 52.4702Z" fill="white"/>
<path d="M32.5487 59.3975C31.8513 59.1427 29.8298 58.4118 29.049 58.1291C27.3947 57.532 26.7177 56.6318 26.7177 55.382C26.7177 53.4923 29.1009 52.3206 31.3042 52.3206C32.7499 52.2957 34.1778 52.6434 35.4511 53.3305C36.0557 53.6783 35.5643 54.3758 35.0097 54.0838C34.0361 53.5723 33.3202 52.9827 31.3821 52.9827C29.6907 52.9827 27.9325 53.7639 27.9325 55.2555C27.9325 56.1241 28.615 56.7713 29.6591 57.1322C29.9874 57.2456 32.3242 58.0807 32.7286 58.2239C34.9189 58.9976 36.1893 59.8606 36.1893 61.5885C36.1893 63.6344 34.1492 64.9977 31.128 64.9977C28.5798 64.9977 26.8995 63.865 26.1817 63.1378C25.6086 62.5631 26.3153 61.9605 26.7993 62.4366C27.3608 63.0455 28.0435 63.5295 28.8032 63.8572C29.5628 64.185 30.3827 64.3492 31.2096 64.3393C33.3295 64.3393 34.9689 63.188 34.9689 61.6666C34.9708 60.227 33.6985 59.8123 32.5487 59.3975Z" fill="white"/>
<path d="M49.9008 52.3213C49.7357 52.3213 49.3555 52.3213 49.3555 53.0485V60.4881C49.3555 61.4943 49.2758 62.3294 48.8195 62.9618C48.176 63.8508 46.9167 64.3419 45.2178 64.3419C43.5487 64.3419 42.3191 63.8434 41.6662 62.9414C41.21 62.3127 41.0783 61.4832 41.0783 60.4881V53.0485C41.0783 52.3213 40.7074 52.3213 40.5312 52.3213C40.355 52.3213 39.9878 52.3213 39.9878 53.0485V60.9215C39.9878 63.4007 42.0409 65.0003 45.2178 65.0003C48.3948 65.0003 50.446 63.4007 50.446 60.9215V53.0485C50.446 52.3213 50.064 52.3213 49.9008 52.3213Z" fill="white"/>
<path d="M63.4358 64.762C64.0071 65.1898 64.2259 64.9145 64.3279 64.788C64.4299 64.6616 64.6636 64.3696 64.1072 63.9213L57.0021 58.1965L63.9422 52.9888C64.3131 52.7135 64.1925 52.4978 64.1276 52.4141C64.0627 52.3304 63.8921 52.1556 63.523 52.4327L55.7336 58.1817V47.238C55.7336 46.5107 55.3497 46.5107 55.1865 46.5107C55.0233 46.5107 54.6431 46.5107 54.6431 47.238V64.2728C54.6431 65.0001 55.0233 65.0001 55.1865 65.0001C55.3497 65.0001 55.7336 65.0001 55.7336 64.2728V58.5499C55.7336 58.5499 63.4396 64.762 63.4358 64.762Z" fill="white"/>
<path d="M72.2063 64.34C68.714 64.34 67.3842 61.2823 67.3842 58.6617C67.3842 55.8347 68.9328 52.9853 72.2063 52.9853C75.6763 52.9853 76.9077 56.043 76.9077 58.6617C76.9077 61.2805 75.6763 64.34 72.2063 64.34ZM77.453 52.3213C77.2898 52.3213 76.9077 52.3473 76.9077 53.0485V55.6375C76.3272 53.9636 74.7434 52.3213 72.1506 52.3213C68.0704 52.3213 66.2158 55.6096 66.2158 58.6617C66.2158 61.7138 67.7885 65.0003 72.2063 65.0003C74.9288 65.0003 76.3532 63.2966 76.9207 61.6934V64.273C76.9207 65.0003 77.2916 65.0003 77.453 65.0003C77.6143 65.0003 77.9983 65.0003 77.9983 64.273V53.0485C78.0038 52.3548 77.6181 52.3213 77.453 52.3213Z" fill="white"/>
</g>
</svg>
