<svg width="36" height="27" viewBox="0 0 36 27" fill="none" xmlns="http://www.w3.org/2000/svg">
<path d="M27.1514 26.44C32.0114 26.44 35.0114 23.38 35.0114 19.36C35.0114 15.4 32.6114 12.88 28.7114 12.88C26.5514 12.88 24.8714 13.66 23.9114 14.92L23.4314 14.74C24.0914 10.72 28.7114 8.38 34.6514 6.82L32.4314 0.399998C23.1314 3.28 18.5114 8.14 18.5114 15.64C18.5114 21.94 21.6314 26.44 27.1514 26.44ZM9.63141 26.44C14.4914 26.44 17.4914 23.38 17.4914 19.36C17.4914 15.4 15.0914 12.88 11.1914 12.88C9.03141 12.88 7.35141 13.66 6.39141 14.92L5.91141 14.74C6.57141 10.72 11.1914 8.38 17.1314 6.82L14.9114 0.399998C5.61141 3.28 0.991406 8.14 0.991406 15.64C0.991406 21.94 4.11141 26.44 9.63141 26.44Z" fill="#50FFC5"/>
</svg>
